<svg width="1700" height="1400" viewBox="0 0 1700 1400" fill="none" xmlns="http://www.w3.org/2000/svg">
<path d="M39.9525 1039.96C-64.2023 1199.6 59.6788 1311.77 134.639 1347.91C461.306 1347.91 1185.65 1357.76 1469.71 1347.91C1824.79 1335.59 1720.63 820.702 1483.92 749.258C1247.2 677.815 1442.42 399.035 1295.24 300.508C826.085 -13.5462 747.731 552.173 257.731 510.292C33.7918 491.152 170.146 840.41 39.9525 1039.96Z" fill="#FFF4E4"/>
<rect width="1184.85" height="968.029" rx="60" fill="#FFEACB"/>
<path d="M0 60C0 26.8629 26.8629 0 60 0H1124.85C1157.99 0 1184.85 26.8629 1184.85 60V115.769H0V60Z" fill="#FED085"/>
<ellipse cx="95.671" cy="60.3479" rx="17.1717" ry="17.2423" fill="white"/>
<ellipse cx="95.671" cy="60.3479" rx="17.1717" ry="17.2423" fill="white"/>
<ellipse cx="153.319" cy="60.3479" rx="17.1717" ry="17.2423" fill="white"/>
<ellipse cx="153.319" cy="60.3479" rx="17.1717" ry="17.2423" fill="white"/>
<ellipse cx="210.967" cy="60.3479" rx="17.1717" ry="17.2423" fill="white"/>
<ellipse cx="210.967" cy="60.3479" rx="17.1717" ry="17.2423" fill="white"/>
<rect x="523.737" y="168.728" width="604.69" height="524.657" rx="40" fill="#FFE2B7"/>
<rect x="705.267" y="224.149" width="180.303" height="12.3159" rx="6.15793" fill="#FDD79F"/>
<rect x="702.814" y="258.634" width="88.3117" height="12.3159" rx="6.15796" fill="#FDD79F"/>
<rect x="702.814" y="293.118" width="310.318" height="12.3159" rx="6.15796" fill="#FDD79F"/>
<rect x="696.681" y="358.392" width="80.9524" height="12.3159" rx="6.15796" fill="#FDD79F"/>
<rect x="694.228" y="392.877" width="310.318" height="12.316" rx="6.15798" fill="#FDD79F"/>
<rect x="694.228" y="427.361" width="310.318" height="12.3159" rx="6.15796" fill="#FDD79F"/>
<rect x="683.189" y="520.962" width="307.864" height="12.3159" rx="6.15796" fill="#FDD79F"/>
<rect x="680.736" y="555.447" width="310.317" height="12.3159" rx="6.15796" fill="#FDD79F"/>
<rect x="680.736" y="589.931" width="310.317" height="12.3159" rx="6.15793" fill="#FDD79F"/>
<ellipse cx="605.725" cy="562.22" rx="41.0895" ry="41.2582" fill="white"/>
<ellipse cx="605.725" cy="269.102" rx="41.0895" ry="41.2582" fill="#EE6754"/>
<path fill-rule="evenodd" clip-rule="evenodd" d="M604.54 282.183C603.287 283.626 601.255 283.626 600.001 282.183L588.88 269.307C587.627 267.865 587.627 265.525 588.88 264.082C590.134 262.639 592.166 262.639 593.419 264.082L602.271 274.346L619.258 254.79C620.511 253.347 622.543 253.347 623.797 254.79C625.05 256.232 625.05 258.572 623.797 260.015L604.54 282.183Z" fill="white"/>
<path fill-rule="evenodd" clip-rule="evenodd" d="M604.54 575.301C603.287 576.744 601.255 576.744 600.001 575.301L588.88 562.426C587.627 560.983 587.627 558.643 588.88 557.2C590.134 555.758 592.166 555.758 593.419 557.2L602.271 567.464L619.258 547.908C620.511 546.465 622.543 546.465 623.797 547.908C625.05 549.351 625.05 551.69 623.797 553.133L604.54 575.301Z" fill="#EE6754"/>
<rect x="56.4213" y="182.275" width="418.254" height="472.93" rx="50" fill="#FFE2B7"/>
<path d="M56.4213 232.275C56.4213 204.661 78.8071 182.275 106.421 182.275H424.675C452.289 182.275 474.675 204.661 474.675 232.275V258.634H56.4213V232.275Z" fill="#FFBF56"/>
<path d="M183.124 210.488V213.769H169.745V224.189H180.608V227.47H169.745V241.391H165.727V210.488H183.124Z" fill="white"/>
<path d="M191.996 213.769V224.1H203.211V227.425H191.996V238.066H204.536V241.391H187.977V210.444H204.536V213.769H191.996Z" fill="white"/>
<path d="M226.026 225.474C227.145 225.652 228.161 226.11 229.073 226.849C230.015 227.588 230.751 228.504 231.281 229.598C231.84 230.691 232.12 231.859 232.12 233.1C232.12 234.667 231.722 236.086 230.928 237.357C230.133 238.598 228.97 239.588 227.439 240.327C225.938 241.037 224.157 241.391 222.096 241.391H210.616V210.488H221.655C223.745 210.488 225.526 210.843 226.998 211.553C228.47 212.232 229.574 213.163 230.309 214.346C231.045 215.528 231.413 216.858 231.413 218.336C231.413 220.169 230.913 221.691 229.912 222.903C228.941 224.085 227.645 224.942 226.026 225.474ZM214.634 223.834H221.39C223.274 223.834 224.731 223.391 225.761 222.504C226.792 221.617 227.307 220.39 227.307 218.824C227.307 217.257 226.792 216.031 225.761 215.144C224.731 214.257 223.245 213.814 221.302 213.814H214.634V223.834ZM221.743 238.066C223.745 238.066 225.305 237.593 226.424 236.647C227.542 235.702 228.102 234.386 228.102 232.701C228.102 230.987 227.513 229.642 226.335 228.667C225.158 227.662 223.583 227.159 221.611 227.159H214.634V238.066H221.743Z" fill="white"/>
<path d="M253.901 241.391L246.571 228.755H241.714V241.391H237.696V210.488H247.631C249.957 210.488 251.914 210.887 253.504 211.686C255.123 212.484 256.33 213.562 257.124 214.922C257.919 216.282 258.317 217.834 258.317 219.578C258.317 221.706 257.699 223.583 256.462 225.208C255.255 226.834 253.43 227.913 250.987 228.445L258.714 241.391H253.901ZM241.714 225.519H247.631C249.809 225.519 251.443 224.987 252.532 223.923C253.621 222.829 254.166 221.381 254.166 219.578C254.166 217.745 253.621 216.326 252.532 215.321C251.473 214.316 249.839 213.814 247.631 213.814H241.714V225.519Z" fill="white"/>
<path d="M268.49 210.488V230.041C268.49 232.79 269.152 234.83 270.477 236.16C271.831 237.49 273.701 238.155 276.085 238.155C278.44 238.155 280.28 237.49 281.604 236.16C282.959 234.83 283.636 232.79 283.636 230.041V210.488H287.654V229.997C287.654 232.568 287.139 234.741 286.108 236.514C285.078 238.258 283.68 239.559 281.913 240.416C280.177 241.273 278.219 241.702 276.041 241.702C273.862 241.702 271.89 241.273 270.124 240.416C268.387 239.559 267.004 238.258 265.973 236.514C264.972 234.741 264.472 232.568 264.472 229.997V210.488H268.49Z" fill="white"/>
<path d="M312.549 234.519H299.126L296.653 241.391H292.414L303.541 210.666H308.178L319.261 241.391H315.022L312.549 234.519ZM311.401 231.238L305.837 215.632L300.274 231.238H311.401Z" fill="white"/>
<path d="M340.315 241.391L332.986 228.755H328.128V241.391H324.11V210.488H334.045C336.371 210.488 338.328 210.887 339.918 211.686C341.537 212.484 342.744 213.562 343.539 214.922C344.334 216.282 344.731 217.834 344.731 219.578C344.731 221.706 344.113 223.583 342.876 225.208C341.67 226.834 339.844 227.913 337.401 228.445L345.128 241.391H340.315ZM328.128 225.519H334.045C336.224 225.519 337.857 224.987 338.947 223.923C340.036 222.829 340.58 221.381 340.58 219.578C340.58 217.745 340.036 216.326 338.947 215.321C337.887 214.316 336.253 213.814 334.045 213.814H328.128V225.519Z" fill="white"/>
<path d="M372.523 210.488L362.499 229.731V241.391H358.481V229.731L348.414 210.488H352.873L360.468 226.139L368.063 210.488H372.523Z" fill="white"/>
<rect x="76.4684" y="298.045" width="74.8196" height="56.6531" rx="8" fill="#FFEACB"/>
<rect x="173.366" y="298.045" width="76.0462" height="56.6531" rx="8" fill="#EE6754"/>
<rect x="271.49" y="298.045" width="74.8196" height="56.6531" rx="8" fill="#FFEACB"/>
<rect x="368.388" y="298.045" width="74.8196" height="56.6531" rx="8" fill="#FFEACB"/>
<rect x="76.4684" y="378.098" width="74.8196" height="56.6531" rx="8" fill="#FFEACB"/>
<rect x="173.366" y="378.098" width="76.0462" height="56.6531" rx="8" fill="#FFEACB"/>
<rect x="271.49" y="378.098" width="74.8196" height="56.6531" rx="8" fill="#FFEACB"/>
<rect x="368.388" y="378.098" width="74.8196" height="56.6531" rx="8" fill="#FFEACB"/>
<rect x="76.4684" y="458.151" width="74.8196" height="56.6531" rx="8" fill="#FFEACB"/>
<rect x="173.366" y="458.151" width="76.0462" height="56.6531" rx="8" fill="#FFEACB"/>
<rect x="271.49" y="458.151" width="74.8196" height="56.6531" rx="8" fill="#FFEACB"/>
<rect x="368.388" y="458.151" width="74.8196" height="56.6531" rx="8" fill="#EE6754"/>
<rect x="76.4684" y="538.204" width="74.8196" height="56.6531" rx="8" fill="#FFEACB"/>
<rect x="173.366" y="538.204" width="76.0462" height="56.6531" rx="8" fill="#FFEACB"/>
<rect x="271.49" y="538.204" width="74.8196" height="56.6531" rx="8" fill="#EE6754"/>
<rect x="368.388" y="538.204" width="74.8196" height="56.6531" rx="8" fill="#FFEACB"/>
<rect x="558.081" y="738.953" width="337.302" height="163.801" rx="40" fill="#FFE2B7"/>
<rect x="577.706" y="386.719" width="30.6638" height="52.9584" fill="#7DB5C4"/>
<rect x="577.706" y="386.719" width="30.6638" height="52.9584" fill="#7DB5C4"/>
<rect x="602.237" y="355.929" width="30.6638" height="83.7481" fill="#7DB5C4"/>
<rect x="602.237" y="355.929" width="30.6638" height="83.7481" fill="#FF546C"/>
<rect x="632.901" y="376.866" width="28.2107" height="62.811" fill="#7DB5C4"/>
<rect x="632.901" y="376.866" width="28.2107" height="62.811" fill="#FFFFFD"/>
<path d="M334.044 813.464C334.044 872.301 286.543 919.997 227.948 919.997C169.352 919.997 121.851 872.301 121.851 813.464C121.851 754.628 169.352 706.932 227.948 706.932C286.543 706.932 334.044 754.628 334.044 813.464ZM162.124 813.464C162.124 849.967 191.594 879.558 227.948 879.558C264.301 879.558 293.771 849.967 293.771 813.464C293.771 776.962 264.301 747.37 227.948 747.37C191.594 747.37 162.124 776.962 162.124 813.464Z" fill="#FDD79F"/>
<path d="M334.044 813.464C334.044 872.301 286.543 919.997 227.948 919.997C169.352 919.997 121.851 872.301 121.851 813.464C121.851 754.628 169.352 706.932 227.948 706.932C286.543 706.932 334.044 754.628 334.044 813.464ZM162.124 813.464C162.124 849.967 191.594 879.558 227.948 879.558C264.301 879.558 293.771 849.967 293.771 813.464C293.771 776.962 264.301 747.37 227.948 747.37C191.594 747.37 162.124 776.962 162.124 813.464Z" fill="#FDD79F"/>
<path d="M334.044 813.464C334.044 793.272 328.329 773.495 317.564 756.439C306.799 739.383 291.429 725.75 273.243 717.129C255.058 708.508 234.807 705.254 214.851 707.747C194.895 710.239 176.055 718.376 160.527 731.207C145 744.039 133.424 761.037 127.148 780.222C120.873 799.406 120.157 819.986 125.084 839.564C130.011 859.141 140.377 876.909 154.976 890.798C169.574 904.686 187.802 914.122 207.537 918.007L215.284 878.324C203.041 875.914 191.732 870.059 182.675 861.443C173.618 852.826 167.186 841.803 164.13 829.657C161.073 817.511 161.517 804.743 165.411 792.84C169.304 780.938 176.486 770.392 186.119 762.431C195.753 754.47 207.441 749.422 219.822 747.876C232.204 746.33 244.767 748.348 256.05 753.697C267.332 759.045 276.868 767.503 283.547 778.085C290.225 788.667 293.771 800.937 293.771 813.464H334.044Z" fill="#FDD79F"/>
<path d="M334.044 813.464C334.044 793.272 328.329 773.495 317.564 756.439C306.799 739.383 291.429 725.75 273.243 717.129C255.058 708.508 234.807 705.254 214.851 707.747C194.895 710.239 176.055 718.376 160.527 731.207C145 744.039 133.424 761.037 127.148 780.222C120.873 799.406 120.157 819.986 125.084 839.564C130.011 859.141 140.377 876.909 154.976 890.798C169.574 904.686 187.802 914.122 207.537 918.007L215.284 878.324C203.041 875.914 191.732 870.059 182.675 861.443C173.618 852.826 167.186 841.803 164.13 829.657C161.073 817.511 161.517 804.743 165.411 792.84C169.304 780.938 176.486 770.392 186.119 762.431C195.753 754.47 207.441 749.422 219.822 747.876C232.204 746.33 244.767 748.348 256.05 753.697C267.332 759.045 276.868 767.503 283.547 778.085C290.225 788.667 293.771 800.937 293.771 813.464H334.044Z" fill="#EE6754"/>
<path d="M334.044 813.464C334.044 798.022 330.701 782.765 324.246 768.749C317.791 754.733 308.378 742.294 296.661 732.293C284.943 722.292 271.2 714.968 256.384 710.83C241.567 706.691 226.032 705.836 210.854 708.324C195.676 710.812 181.218 716.583 168.482 725.238C155.746 733.893 145.036 745.225 137.094 758.448C129.152 771.672 124.167 786.471 122.487 801.82C120.806 817.17 122.468 832.703 127.359 847.343L165.541 834.483C162.507 825.4 161.475 815.763 162.518 806.24C163.561 796.717 166.653 787.536 171.581 779.332C176.508 771.128 183.153 764.097 191.054 758.728C198.956 753.358 207.926 749.777 217.343 748.234C226.759 746.69 236.397 747.221 245.59 749.789C254.782 752.356 263.308 756.9 270.578 763.105C277.848 769.309 283.687 777.027 287.692 785.722C291.697 794.418 293.771 803.884 293.771 813.464H334.044Z" fill="#FDD79F"/>
<path d="M334.044 813.464C334.044 798.022 330.701 782.765 324.246 768.749C317.791 754.733 308.378 742.294 296.661 732.293C284.943 722.292 271.2 714.968 256.384 710.83C241.567 706.691 226.032 705.836 210.854 708.324C195.676 710.812 181.218 716.583 168.482 725.238C155.746 733.893 145.036 745.225 137.094 758.448C129.152 771.672 124.167 786.471 122.487 801.82C120.806 817.17 122.468 832.703 127.359 847.343L165.541 834.483C162.507 825.4 161.475 815.763 162.518 806.24C163.561 796.717 166.653 787.536 171.581 779.332C176.508 771.128 183.153 764.097 191.054 758.728C198.956 753.358 207.926 749.777 217.343 748.234C226.759 746.69 236.397 747.221 245.59 749.789C254.782 752.356 263.308 756.9 270.578 763.105C277.848 769.309 283.687 777.027 287.692 785.722C291.697 794.418 293.771 803.884 293.771 813.464H334.044Z" fill="#7DB5C4"/>
<path d="M334.044 813.464C334.044 796.483 330.001 779.748 322.253 764.654C314.504 749.56 303.275 736.545 289.5 726.693C275.725 716.841 259.805 710.439 243.066 708.019C226.326 705.599 209.254 707.233 193.271 712.783L206.434 751C216.35 747.557 226.942 746.544 237.327 748.045C247.712 749.546 257.589 753.518 266.135 759.63C274.681 765.743 281.648 773.817 286.456 783.182C291.263 792.546 293.771 802.929 293.771 813.464H334.044Z" fill="#FDD79F"/>
<path d="M334.044 813.464C334.044 796.483 330.001 779.748 322.253 764.654C314.504 749.56 303.275 736.545 289.5 726.693C275.725 716.841 259.805 710.439 243.066 708.019C226.326 705.599 209.254 707.233 193.271 712.783L206.434 751C216.35 747.557 226.942 746.544 237.327 748.045C247.712 749.546 257.589 753.518 266.135 759.63C274.681 765.743 281.648 773.817 286.456 783.182C291.263 792.546 293.771 802.929 293.771 813.464H334.044Z" fill="#FF546C"/>
<path d="M756.169 1101.31C722.807 1037.27 682.576 1031.11 666.631 1036.04H654.365L750.649 1331L883.73 1344.55L946.284 1273.74C944.649 1267.37 929.849 1251.44 883.73 1238.64C826.082 1222.62 797.872 1181.37 756.169 1101.31Z" fill="#F44B63"/>
<mask id="mask0" mask-type="alpha" maskUnits="userSpaceOnUse" x="654" y="1034" width="293" height="311">
<path d="M756.169 1101.31C722.807 1037.27 682.576 1031.11 666.631 1036.04H654.365L750.649 1331L883.73 1344.55L946.284 1273.74C944.649 1267.37 929.849 1251.44 883.73 1238.64C826.082 1222.62 797.872 1181.37 756.169 1101.31Z" fill="#F44B63"/>
</mask>
<g mask="url(#mask0)">
<path d="M794.192 1246.98C844.481 1314.11 869.625 1301.17 873.304 1304.87L828.535 1347.36C811.159 1343.05 776.162 1333.81 775.18 1331.35C774.199 1328.88 700.361 1134.09 663.564 1037L710.173 1024.68C727.958 1036.18 759.603 1062 743.903 1073.33C724.279 1087.49 775.02 1221.39 794.192 1246.98Z" fill="#EA3F57"/>
</g>
<mask id="mask1" mask-type="alpha" maskUnits="userSpaceOnUse" x="654" y="1034" width="295" height="366">
<path d="M756.976 1113.23C723.349 1037.73 682.799 1030.47 666.728 1036.28H654.365L751.413 1384.03L885.549 1400L948.599 1316.51C946.95 1309.01 932.032 1290.23 885.549 1275.13C827.444 1256.25 799.009 1207.61 756.976 1113.23Z" fill="#F44B63"/>
</mask>
<g mask="url(#mask1)">
<path d="M716.306 1094.88C718.35 1084.21 728.081 1064.34 750.649 1070.25M733.478 1150.3C740.837 1137.58 760.707 1113.36 781.313 1118.28M750.649 1197.1C755.964 1179.45 775.671 1148.33 811.977 1165.08M758.009 1237.75C766.595 1249.24 790.635 1267.55 818.11 1248.83C852.453 1225.43 868.398 1184.79 897.835 1206.96M781.313 1303.02C805.844 1298.51 855.642 1284.3 858.586 1263.61C861.53 1242.92 899.88 1237.75 918.687 1237.75" stroke="white" stroke-opacity="0.3" stroke-width="2"/>
</g>
<path d="M404.762 673.725C424.387 608.697 556.854 641.704 556.854 673.725C654.978 811.663 620.635 1038.28 483.261 1082.61C373.362 1118.08 331.169 1025.14 323.81 974.233C335.257 980.801 367.475 995.416 404.762 1001.33C451.371 1008.72 461.183 966.843 424.387 900.338C387.59 833.832 380.231 755.01 404.762 673.725Z" fill="#5E1212"/>
<mask id="mask2" mask-type="alpha" maskUnits="userSpaceOnUse" x="323" y="636" width="290" height="455">
<path d="M404.762 673.725C424.387 608.697 556.854 641.704 556.854 673.725C654.978 811.663 620.635 1038.28 483.261 1082.61C373.362 1118.08 331.169 1025.14 323.81 974.233C335.257 980.801 367.475 995.416 404.762 1001.33C451.371 1008.72 461.183 966.843 424.387 900.338C387.59 833.832 380.231 755.01 404.762 673.725Z" fill="#5E1212"/>
</mask>
<g mask="url(#mask2)">
<path d="M435.426 1023.5C386.977 1056.09 344.661 1011.59 316.45 987.78L258.802 833.832L402.309 585.051L536.003 623.23V662.641C511.881 664.283 448.912 663.217 435.426 687.273C402.309 746.343 428.066 838.758 456.277 907.727C484.488 976.696 476.503 995.864 435.426 1023.5Z" fill="#7E1B1B"/>
</g>
<path d="M333.622 1214.62C346.409 1186.81 425.204 1081.2 489.394 1028.65C552.97 1021.88 682.821 1013.5 693.615 1034.19C707.107 1060.05 792.965 1292.82 793.579 1319.3C794.069 1340.49 781.313 1360.56 784.38 1351.33L668.47 1354.4C580.363 1355.84 434.199 1365.12 375.325 1351.33C301.732 1334.08 312.771 1259.96 333.622 1214.62Z" fill="#FF546C"/>
<mask id="mask3" mask-type="alpha" maskUnits="userSpaceOnUse" x="323" y="1021" width="471" height="338">
<path d="M333.622 1214.62C339.509 1184.57 425.204 1081.2 489.394 1028.65C552.97 1021.88 682.821 1013.5 693.615 1034.19C707.107 1060.05 792.965 1292.82 793.579 1319.3C794.069 1340.49 781.313 1360.56 784.379 1351.33L668.47 1354.4C580.363 1355.84 434.199 1365.12 375.325 1351.33C301.731 1334.08 326.262 1252.18 333.622 1214.62Z" fill="#FF546C"/>
</mask>
<g mask="url(#mask3)">
<path d="M361.832 1220.55C374.916 1181.14 450.553 1086.31 491.847 1051.82L448.918 1014.88L317.677 1124.49L226.912 1346.17L623.088 1399.13L662.338 1338.78C587.109 1336.32 438.124 1323.51 409.668 1321.54C374.098 1319.08 352.02 1250.11 361.832 1220.55Z" fill="#F8435C"/>
</g>
<mask id="mask4" mask-type="alpha" maskUnits="userSpaceOnUse" x="318" y="1021" width="476" height="338">
<path d="M333.622 1214.62C346.409 1186.81 425.204 1081.2 489.394 1028.65C552.97 1021.88 682.821 1013.5 693.615 1034.19C707.107 1060.05 792.965 1292.82 793.579 1319.3C794.069 1340.49 781.313 1360.56 784.38 1351.33L668.47 1354.4C580.363 1355.84 434.199 1365.12 375.325 1351.33C301.732 1334.08 312.771 1259.96 333.622 1214.62Z" fill="#FF546C"/>
</mask>
<g mask="url(#mask4)">
<path d="M350.794 1114.59C385.546 1098.58 462.655 1076.16 493.074 1114.59C531.097 1162.62 566.667 1190.95 604.69 1156.46C642.713 1121.98 679.509 1108.43 705.267 1141.68C725.873 1168.29 753.102 1138.81 764.141 1120.75M334.848 1163.85C354.064 1147.84 402.554 1123.95 442.785 1156.46C483.016 1188.98 519.24 1200.39 532.323 1202.03L585.065 1210.65C596.104 1206.96 620.144 1197.1 627.994 1187.25C637.807 1174.94 675.83 1163.85 705.267 1187.25C728.817 1205.97 764.141 1195.05 778.86 1187.25M423.16 1053.01C447.691 1050.55 501.659 1055.96 521.284 1097.35C545.815 1149.07 619.408 1043.16 667.244 1078.87C705.512 1107.44 730.616 1090.78 738.384 1078.87M298.052 1229.13C316.45 1204.08 367.229 1165.33 423.16 1210.65M323.809 1322.73C315.632 1299.33 314.242 1255.97 374.098 1269.77C433.954 1283.56 457.912 1236.1 462.41 1210.65M374.098 1353.52C363.468 1341.61 356.436 1316.32 413.348 1310.41C470.26 1304.5 500.842 1235.69 509.019 1202.03M442.785 1353.52C487.35 1333.4 572.063 1276.67 554.401 1210.65M532.323 1353.52C567.075 1332.58 631.429 1274.69 610.822 1210.65M604.69 1353.52C629.129 1328.88 669.723 1268.04 636.58 1221.74M675.83 1241.44C691.366 1232 730.779 1218.78 764.141 1241.44C797.504 1264.1 820.563 1250.88 827.922 1241.44" stroke="white" stroke-opacity="0.5" stroke-width="2"/>
</g>
<path d="M494.914 973.228C508.651 951.059 565.645 957.012 592.424 962.759C646.883 971.134 666.631 973.228 685.642 988.623C698.521 1006.48 700.238 1018.3 692.388 1053.28C682.576 1097 674.331 1125.37 592.424 1111.17C507.179 1096.39 488.167 1056.98 477.128 1043.43C470.915 1035.8 477.742 1000.94 494.914 973.228Z" fill="#EA3F57"/>
<path d="M515.152 988.966C516.623 996.848 539.887 1010.31 551.335 1016.06L608.369 1043.77C626.768 1045.82 664.913 1048.7 670.31 1043.77C677.056 1037.61 681.899 1025.08 671.537 1010.52C656.205 988.966 591.811 976.034 566.667 972.955C544.81 970.279 513.312 979.113 515.152 988.966Z" fill="#D62840"/>
<mask id="mask5" mask-type="alpha" maskUnits="userSpaceOnUse" x="474" y="957" width="224" height="158">
<path d="M494.914 973.228C508.651 951.059 565.645 957.012 592.424 962.759C646.883 971.134 666.631 973.228 685.642 988.623C698.521 1006.48 700.238 1018.3 692.388 1053.28C682.576 1097 674.331 1125.37 592.424 1111.17C507.179 1096.39 488.167 1056.98 477.128 1043.43C470.915 1035.8 477.742 1000.94 494.914 973.228Z" fill="#EA3F57"/>
</mask>
<g mask="url(#mask5)">
<path d="M490.621 1073.95C490.416 1055.27 495.649 1013.84 518.218 997.587M512.085 1084.41C515.356 1064.71 525.209 1022.96 538.456 1013.6M545.815 1103.5C547.246 1084 553.052 1041.55 564.827 1027.76M579.546 1116.44C582.612 1096.52 591.075 1054.36 600.397 1045M620.022 1121.98C624.11 1106.99 632.533 1072.1 633.514 1052.39M656.818 1121.98C657.432 1116.44 673.99 1056.7 661.724 1045M669.697 1045C673.172 1038.43 680.368 1022.1 681.349 1009.29C682.331 996.479 681.758 976.855 681.349 968.645M678.283 1103.5C682.167 1086.47 687.605 1050.91 678.283 1045M478.355 1052.39C479.582 1048.08 482.035 985.887 512.085 977.266C536.126 970.369 546.633 998.613 548.882 1013.6M567.893 1003.74C569.938 995.124 568.997 974.926 548.882 963.102C528.766 951.279 508.201 950.376 500.433 951.402M583.838 982.192L564.827 947.708M653.139 1033.92C658.249 1025.91 668.593 1008.06 669.084 1000.67C669.574 993.276 669.288 964.745 669.084 951.402" stroke="#AC1B2F" stroke-width="2"/>
</g>
<path d="M547.655 1008.33C565.013 1005.86 589.511 975.075 589.511 944.542C626.817 915.313 695.26 876.862 670.593 956.893C639.759 1056.93 682.013 1040.88 656.318 1051.37C635.762 1059.77 584.563 1038.41 561.533 1026.67C554.3 1018.85 530.297 1010.8 547.655 1008.33Z" fill="#FFC2A0"/>
<mask id="mask6" mask-type="alpha" maskUnits="userSpaceOnUse" x="539" y="915" width="135" height="149">
<path d="M545.827 1014.21C563.101 1011.74 587.479 980.961 587.479 950.428C624.602 921.198 693.017 884.303 668.47 964.334C637.787 1064.37 690.36 1051.13 664.791 1061.63C644.335 1070.03 582.555 1044.29 559.637 1032.56C552.439 1024.74 528.553 1016.68 545.827 1014.21Z" fill="#FFC2A0"/>
</mask>
<g mask="url(#mask6)">
<path d="M650.21 995.145C609.48 1010.54 581.987 948.333 581.478 942.173H578.932C613.383 932.318 682.896 912.607 685.34 912.607C688.395 912.607 690.941 979.746 650.21 995.145Z" fill="#F29386"/>
</g>
<path d="M518.831 996.012C534.776 1009.97 577.602 1038 610.823 1046.51C642.1 1054.51 650.685 1054.51 672.763 1042.81" stroke="#AC1B2F" stroke-width="5" stroke-linecap="round"/>
<path d="M613.276 963.991C545.745 946.232 523.124 888.248 529.87 787.258C569.12 617.298 687.073 652.399 740.837 696.736C747.174 717.262 761.214 791.145 744.516 863C723.052 955.37 664.791 977.538 613.276 963.991Z" fill="#FFC2A0"/>
<mask id="mask7" mask-type="alpha" maskUnits="userSpaceOnUse" x="528" y="660" width="225" height="308">
<path d="M613.276 963.991C545.745 946.232 523.124 888.248 529.87 787.258C569.12 617.298 687.073 652.399 740.837 696.736C747.174 717.262 761.214 791.145 744.516 863C723.052 955.37 664.791 977.538 613.276 963.991Z" fill="#FFC2A0"/>
</mask>
<g mask="url(#mask7)">
<path d="M589.971 817.775C563.968 842.407 536.412 820.649 526.19 814.08L510.859 763.585L669.084 685.995L773.341 723.559C771.296 727.048 756.414 739.2 713.24 759.89C670.065 780.581 662.951 751.269 664.791 734.027C650.685 751.68 615.974 793.143 589.971 817.775Z" fill="#F29386"/>
</g>
<path d="M677.67 707.204C661.52 728.141 619.899 777.282 582.612 806.347C564.571 820.41 545.707 821.393 529.257 816.732C528.276 867.899 541.931 903.382 548.882 914.727C434.199 924.58 465.476 791.568 466.703 757.084C467.929 722.599 554.401 575.424 680.736 582.198C807.071 588.972 808.911 717.057 800.938 746.615C794.56 770.262 765.572 786.437 751.876 791.568L748.21 732.672C748.15 735.574 739.266 744.129 703.427 757.084C666.631 770.385 670.924 729.373 677.67 707.204Z" fill="#5E1212"/>
<mask id="mask8" mask-type="alpha" maskUnits="userSpaceOnUse" x="461" y="581" width="343" height="335">
<path d="M677.67 707.204C661.52 728.141 619.899 777.282 582.612 806.347C564.571 820.41 545.707 821.393 529.257 816.732C528.276 867.899 541.931 903.382 548.882 914.727C434.199 924.58 465.476 791.568 466.703 757.084C467.929 722.599 554.401 575.424 680.736 582.198C807.071 588.972 808.911 717.057 800.938 746.615C794.56 770.262 765.572 786.437 751.876 791.568L748.21 732.672C748.15 735.574 739.266 744.129 703.427 757.084C666.631 770.385 670.924 729.373 677.67 707.204Z" fill="#5E1212"/>
</mask>
<g mask="url(#mask8)">
<path d="M469.769 836.295C466.825 878.662 489.803 906.496 501.659 915.117V960.685L435.426 915.117L408.442 790.726L469.769 607.219L681.962 557.956L758.009 607.219C729.389 601.472 673.377 595.473 637.807 607.219C565.067 631.24 545.815 674.957 520.058 702.052C494.3 729.147 473.449 783.337 469.769 836.295Z" fill="#7E1B1B"/>
</g>
<ellipse cx="696.068" cy="828.516" rx="9.19914" ry="17.8581" fill="black"/>
<ellipse cx="643.326" cy="829.748" rx="10.4257" ry="20.3213" fill="black"/>
<ellipse cx="614.502" cy="867.701" rx="22.0779" ry="12.9317" fill="#F67E6D"/>
<ellipse cx="721.825" cy="867.701" rx="19.0115" ry="12.9317" fill="#F67E6D"/>
<path d="M675.83 850.069C679.305 858.895 688.594 870.492 696.068 875.316C704.654 880.858 691.775 888.864 683.802 891.943" stroke="#E58574" stroke-width="2.5" stroke-linecap="round"/>
<path d="M620.022 790.337C625.337 784.795 640.873 774.819 660.498 779.252M700.361 779.252C708.742 777.816 726.364 778.021 729.798 790.337" stroke="black" stroke-width="5" stroke-linecap="round"/>
<path d="M493.074 816.2C504.358 798.958 525.373 808.605 531.097 820.511C542.749 913.496 545.202 899.332 523.737 886.401C502.46 873.582 478.968 837.753 493.074 816.2Z" fill="#FFC2A0"/>
<path d="M529.257 842.407C522.511 830.707 508.038 811.74 504.113 829.475C502.236 837.953 504.486 846.521 508.357 853.491M508.357 853.491C514.609 864.748 525.091 871.838 529.257 867.654C536.003 860.881 519.961 851.028 508.357 853.491Z" stroke="#E17C6E" stroke-width="3"/>
<path d="M411.508 1212.16C454.846 1204.15 560.411 1194.79 635.967 1221.39" stroke="#AC1B2F" stroke-width="5"/>
<g filter="url(#filter0_i)">
<path d="M791.739 1291.59C754.452 1265.98 685.233 1250.95 661.111 1257.11C659.68 1278.87 663.212 1319.27 678.283 1329.16C708.333 1348.86 772.115 1345.17 785.607 1341.47C796.4 1338.52 774.159 1310.07 767.822 1302.06C791.739 1310.07 815.044 1338.6 816.27 1337.16C819.746 1333.26 829.027 1317.21 791.739 1291.59Z" fill="#FFC2A0"/>
</g>
<path d="M770.887 1347.63C762.506 1337.37 743.167 1315.49 732.864 1310.07" stroke="#E17C6E" stroke-width="4" stroke-linecap="round"/>
<path d="M626.768 1354.4L632.9 1213.39H702.814L694.841 1354.4H626.768Z" fill="#EA3F57"/>
<mask id="mask9" mask-type="alpha" maskUnits="userSpaceOnUse" x="626" y="1213" width="77" height="142">
<path d="M626.768 1354.4L632.9 1213.39H702.814L694.841 1354.4H626.768Z" fill="#EA3F57"/>
</mask>
<g mask="url(#mask9)">
<path d="M664.791 1238.36C638.297 1238.36 635.558 1318.21 633.514 1360.29C626.563 1357.62 611.804 1350.93 608.369 1345.51C604.935 1340.09 593.855 1236.93 588.745 1186.02L709.56 1175.55L735.317 1256.22C726.732 1261.76 691.284 1238.36 664.791 1238.36Z" fill="#D62840"/>
</g>
<mask id="mask10" mask-type="alpha" maskUnits="userSpaceOnUse" x="626" y="1213" width="77" height="142">
<path d="M626.768 1354.4L632.9 1213.39H702.814L694.841 1354.4H626.768Z" fill="#EA3F57"/>
</mask>
<g mask="url(#mask10)">
<path d="M624.928 1230.36C646.597 1228.72 692.879 1227.65 704.654 1236.52M620.022 1260.53C640.464 1267.1 686.746 1278.64 708.333 1272.23M620.022 1306.1C641.895 1308.97 689.444 1313 704.654 1306.1M612.662 1336.89C616.342 1338.74 701.587 1343.66 713.24 1333.81" stroke="#AC1B2F" stroke-width="2"/>
</g>
<g filter="url(#filter1_i)">
<path d="M902.742 1267.58C853.68 1251.81 836.508 1306.17 834.055 1335.31L932.179 1324.23C942.809 1311.91 951.804 1283.34 902.742 1267.58Z" fill="#FFBF9C"/>
</g>
<ellipse cx="648.041" cy="928.048" rx="14.7186" ry="14.1633" fill="#BB2036"/>
<mask id="mask11" mask-type="alpha" maskUnits="userSpaceOnUse" x="633" y="913" width="30" height="30">
<ellipse cx="648.041" cy="928.048" rx="14.7186" ry="14.1633" fill="#BB2036"/>
</mask>
<g mask="url(#mask11)">
<path d="M676.252 908.959V928.664L650.905 920.135C650.632 920.043 650.351 919.975 650.067 919.931L618.604 915.117V894.18L676.252 908.959Z" fill="#FFFBFB"/>
</g>
<g filter="url(#filter2_i)">
<rect x="710.173" y="1327.93" width="580.159" height="24.6317" rx="12.3159" fill="#357290"/>
</g>
<g filter="url(#filter3_i)">
<path d="M990.796 1009.21C992.277 1005.34 995.992 1002.79 1000.14 1002.79H1445.06C1452.39 1002.79 1457.23 1010.41 1454.11 1017.05L1294.91 1355.02H858.586L990.796 1009.21Z" fill="#7DB5C4"/>
</g>
<mask id="mask12" mask-type="alpha" maskUnits="userSpaceOnUse" x="858" y="1002" width="598" height="354">
<path d="M990.796 1009.21C992.277 1005.34 995.992 1002.79 1000.14 1002.79H1445.06C1452.39 1002.79 1457.23 1010.41 1454.11 1017.05L1294.91 1355.02H858.586L990.796 1009.21Z" fill="#7DB5C4"/>
</mask>
<g mask="url(#mask12)">
<path d="M1216.74 1232.87L1025.4 1018.57L1454.69 873.243L1569.99 1038.28L1336.94 1383.12L1216.74 1232.87Z" fill="#64A6C0"/>
</g>
<mask id="mask13" mask-type="alpha" maskUnits="userSpaceOnUse" x="858" y="1002" width="598" height="354">
<path d="M990.796 1009.21C992.277 1005.34 995.992 1002.79 1000.14 1002.79H1445.06C1452.39 1002.79 1457.23 1010.41 1454.11 1017.05L1294.91 1355.02H858.586L990.796 1009.21Z" fill="#7DB5C4"/>
</mask>
<g mask="url(#mask13)">
<path d="M1027.85 1025.96L883.117 1360.95L822.403 1331.96L863.492 932.359H1535.64V1013.64L1027.85 1025.96Z" fill="#163D56"/>
</g>
<g filter="url(#filter4_d)">
<ellipse cx="1179.94" cy="1180.13" rx="19.6249" ry="19.7054" fill="#133B54"/>
</g>
<rect x="969.398" y="745.111" width="255.123" height="160.106" rx="20" fill="#FED085"/>
<path d="M1179.21 785.934L1165.21 769.721C1164.91 769.372 1165.08 768.827 1165.53 768.719L1185.79 763.834C1186.73 763.607 1187.55 764.515 1187.23 765.434L1180.25 785.732C1180.1 786.18 1179.52 786.292 1179.21 785.934Z" fill="white"/>
<path fill-rule="evenodd" clip-rule="evenodd" d="M1184.93 760.242C1188.7 759.333 1191.98 762.963 1190.71 766.64L1183.73 786.938C1182.65 790.075 1178.59 790.862 1176.43 788.354L1172.18 783.438L1125.01 825.377C1119.25 830.498 1110.68 830.759 1104.62 826L1078.49 805.472C1077.39 804.61 1075.91 804.444 1074.65 805.041L990.829 844.831L987.683 838.15L1071.5 798.361C1075.28 796.569 1079.74 797.069 1083.02 799.652L1109.15 820.18C1112.41 822.743 1117.03 822.602 1120.14 819.845L1167.36 777.855L1162.43 772.141C1160.32 769.699 1161.54 765.881 1164.67 765.126L1184.93 760.242ZM1186.64 767.428L1186.65 767.427L1186.08 765.032L1186.65 767.427C1186.65 767.427 1186.65 767.428 1186.64 767.428ZM1183.76 764.228L1183.75 764.235C1183.75 764.233 1183.76 764.23 1183.76 764.228ZM1182.3 768.477L1171.3 771.129L1178.51 779.483L1182.3 768.477Z" fill="white"/>
<rect x="998.835" y="848.565" width="17.1718" height="36.9477" rx="5" fill="white"/>
<rect x="1034.4" y="831.323" width="15.9452" height="54.1899" rx="5" fill="white"/>
<rect x="1068.75" y="819.007" width="17.1718" height="66.5059" rx="5" fill="white"/>
<rect x="1104.32" y="841.175" width="15.9451" height="44.3373" rx="5" fill="white"/>
<rect x="1138.66" y="819.007" width="17.1718" height="66.5059" rx="5" fill="white"/>
<rect x="1174.23" y="798.07" width="15.945" height="87.4429" rx="5" fill="white"/>
<path fill-rule="evenodd" clip-rule="evenodd" d="M616.79 487.709C664.547 487.709 703.262 448.835 703.262 400.882C703.262 352.929 664.547 314.055 616.79 314.055C569.033 314.055 530.318 352.929 530.318 400.882C530.318 448.835 569.033 487.709 616.79 487.709ZM616.79 506.183C674.708 506.183 721.66 459.038 721.66 400.882C721.66 342.726 674.708 295.581 616.79 295.581C558.872 295.581 511.92 342.726 511.92 400.882C511.92 459.038 558.872 506.183 616.79 506.183Z" fill="#163D56"/>
<path d="M432.434 551.805L538.142 461.739L563.676 472.009C535.428 499.659 473.108 551.026 457.851 564.044C443.346 576.42 426.661 571.463 432.434 551.805Z" fill="#163D56"/>
<rect width="49.0648" height="115.763" rx="24.5324" transform="matrix(0.9931 0.117274 -0.11633 0.993211 191.739 1134.29)" fill="#4A4A4A"/>
<mask id="mask14" mask-type="alpha" maskUnits="userSpaceOnUse" x="180" y="1136" width="58" height="117">
<rect width="49.0648" height="115.763" rx="24.5324" transform="matrix(0.9931 0.117274 -0.116329 0.993211 191.739 1134.29)" fill="#4A4A4A"/>
</mask>
<g mask="url(#mask14)">
<path d="M237.76 1168.16C208.936 1171.86 184.405 1158.93 180.725 1155.23C180.725 1186.02 181.216 1248.34 183.178 1251.29C185.141 1254.25 217.113 1251.29 232.854 1249.45C244.097 1221.12 260.819 1165.21 237.76 1168.16Z" fill="#C4C4C4"/>
</g>
<mask id="mask15" mask-type="alpha" maskUnits="userSpaceOnUse" x="180" y="1155" width="70" height="98">
<path d="M237.76 1168.16C208.936 1171.86 184.405 1158.93 180.725 1155.23C180.725 1186.02 181.216 1248.34 183.178 1251.29C185.141 1254.25 217.113 1251.29 232.854 1249.45C244.097 1221.12 260.819 1165.21 237.76 1168.16Z" fill="#C4C4C4"/>
</mask>
<g mask="url(#mask15)">
<mask id="mask16" mask-type="alpha" maskUnits="userSpaceOnUse" x="180" y="1155" width="61" height="98">
<path d="M237.76 1168.16C209.883 1159.93 184.405 1158.93 180.725 1155.23C180.725 1186.02 181.216 1248.34 183.178 1251.29C185.141 1254.25 217.113 1251.29 232.854 1249.45C223.655 1222.35 248.186 1171.24 237.76 1168.16Z" fill="#C4C4C4"/>
</mask>
<g mask="url(#mask16)">
<rect width="22.0796" height="112.066" transform="matrix(0.99059 0.136865 -0.135769 0.990741 222.779 1153.01)" fill="#929292"/>
</g>
</g>
<rect x="156.194" y="1070.25" width="45.3824" height="259.865" fill="#FFBE5F"/>
<mask id="mask17" mask-type="alpha" maskUnits="userSpaceOnUse" x="156" y="1070" width="46" height="261">
<rect x="156.194" y="1070.25" width="45.3824" height="259.865" fill="#FFBE5F"/>
</mask>
<g mask="url(#mask17)">
<path d="M193.604 1085.03C192.132 1074.68 166.824 1073.33 154.354 1073.95L152.515 1057.93L210.776 1059.78L212.002 1282.08L188.698 1290.71C190.947 1226.46 195.076 1095.38 193.604 1085.03Z" fill="#F5A836"/>
</g>
<path d="M178.272 1077.64H201.577V1080.1H178.272V1077.64Z" fill="#972D00"/>
<path d="M178.272 1077.64H201.577V1080.1H178.272V1077.64Z" fill="#972D00"/>
<path d="M178.272 1077.64H201.577V1080.1H178.272V1077.64Z" fill="#972D00"/>
<path d="M189.311 1085.03H201.577V1087.49H189.311V1085.03Z" fill="#972D00"/>
<path d="M189.311 1085.03H201.577V1087.49H189.311V1085.03Z" fill="#972D00"/>
<path d="M189.311 1085.03H201.577V1087.49H189.311V1085.03Z" fill="#972D00"/>
<path d="M189.311 1092.42H201.577V1094.88H189.311V1092.42Z" fill="#972D00"/>
<path d="M189.311 1092.42H201.577V1094.88H189.311V1092.42Z" fill="#972D00"/>
<path d="M189.311 1092.42H201.577V1094.88H189.311V1092.42Z" fill="#972D00"/>
<path d="M178.272 1101.04H201.577V1103.5H178.272V1101.04Z" fill="#972D00"/>
<path d="M178.272 1101.04H201.577V1103.5H178.272V1101.04Z" fill="#972D00"/>
<path d="M178.272 1101.04H201.577V1103.5H178.272V1101.04Z" fill="#972D00"/>
<path d="M189.311 1108.43H201.577V1110.89H189.311V1108.43Z" fill="#972D00"/>
<path d="M189.311 1108.43H201.577V1110.89H189.311V1108.43Z" fill="#972D00"/>
<path d="M189.311 1108.43H201.577V1110.89H189.311V1108.43Z" fill="#972D00"/>
<path d="M189.311 1115.82H201.577V1118.28H189.311V1115.82Z" fill="#972D00"/>
<path d="M189.311 1115.82H201.577V1118.28H189.311V1115.82Z" fill="#972D00"/>
<path d="M189.311 1115.82H201.577V1118.28H189.311V1115.82Z" fill="#972D00"/>
<path d="M178.272 1124.44H201.577V1126.9H178.272V1124.44Z" fill="#972D00"/>
<path d="M178.272 1124.44H201.577V1126.9H178.272V1124.44Z" fill="#972D00"/>
<path d="M178.272 1124.44H201.577V1126.9H178.272V1124.44Z" fill="#972D00"/>
<path d="M189.311 1131.83H201.577V1134.29H189.311V1131.83Z" fill="#972D00"/>
<path d="M189.311 1131.83H201.577V1134.29H189.311V1131.83Z" fill="#972D00"/>
<path d="M189.311 1131.83H201.577V1134.29H189.311V1131.83Z" fill="#972D00"/>
<path d="M189.311 1139.22H201.577V1141.68H189.311V1139.22Z" fill="#972D00"/>
<path d="M189.311 1139.22H201.577V1141.68H189.311V1139.22Z" fill="#972D00"/>
<path d="M189.311 1139.22H201.577V1141.68H189.311V1139.22Z" fill="#972D00"/>
<path d="M178.272 1147.84H201.577V1150.3H178.272V1147.84Z" fill="#972D00"/>
<path d="M178.272 1147.84H201.577V1150.3H178.272V1147.84Z" fill="#972D00"/>
<path d="M178.272 1147.84H201.577V1150.3H178.272V1147.84Z" fill="#972D00"/>
<path d="M189.311 1155.23H201.577V1157.69H189.311V1155.23Z" fill="#972D00"/>
<path d="M189.311 1155.23H201.577V1157.69H189.311V1155.23Z" fill="#972D00"/>
<path d="M189.311 1155.23H201.577V1157.69H189.311V1155.23Z" fill="#972D00"/>
<path d="M189.311 1162.62H201.577V1165.08H189.311V1162.62Z" fill="#972D00"/>
<path d="M189.311 1162.62H201.577V1165.08H189.311V1162.62Z" fill="#972D00"/>
<path d="M189.311 1162.62H201.577V1165.08H189.311V1162.62Z" fill="#972D00"/>
<path d="M178.272 1171.24H201.577V1173.7H178.272V1171.24Z" fill="#972D00"/>
<path d="M178.272 1171.24H201.577V1173.7H178.272V1171.24Z" fill="#972D00"/>
<path d="M178.272 1171.24H201.577V1173.7H178.272V1171.24Z" fill="#972D00"/>
<path d="M189.311 1178.63H201.577V1181.09H189.311V1178.63Z" fill="#972D00"/>
<path d="M189.311 1178.63H201.577V1181.09H189.311V1178.63Z" fill="#972D00"/>
<path d="M189.311 1178.63H201.577V1181.09H189.311V1178.63Z" fill="#972D00"/>
<path d="M189.311 1186.02H201.577V1188.48H189.311V1186.02Z" fill="#972D00"/>
<path d="M189.311 1186.02H201.577V1188.48H189.311V1186.02Z" fill="#972D00"/>
<path d="M189.311 1186.02H201.577V1188.48H189.311V1186.02Z" fill="#972D00"/>
<path d="M178.272 1194.64H201.577V1197.1H178.272V1194.64Z" fill="#972D00"/>
<path d="M178.272 1194.64H201.577V1197.1H178.272V1194.64Z" fill="#972D00"/>
<path d="M178.272 1194.64H201.577V1197.1H178.272V1194.64Z" fill="#972D00"/>
<path d="M189.311 1202.03H201.577V1204.49H189.311V1202.03Z" fill="#972D00"/>
<path d="M189.311 1202.03H201.577V1204.49H189.311V1202.03Z" fill="#972D00"/>
<path d="M189.311 1202.03H201.577V1204.49H189.311V1202.03Z" fill="#972D00"/>
<path d="M189.311 1209.42H201.577V1211.88H189.311V1209.42Z" fill="#972D00"/>
<path d="M189.311 1209.42H201.577V1211.88H189.311V1209.42Z" fill="#972D00"/>
<path d="M189.311 1209.42H201.577V1211.88H189.311V1209.42Z" fill="#972D00"/>
<rect width="12.266" height="216.751" transform="matrix(0.995095 0.0989289 -0.098129 0.995174 237.565 1109.66)" fill="#EE6754"/>
<ellipse rx="6.13296" ry="2.46314" transform="matrix(0.99615 0.0876613 -0.0869484 0.996213 243.47 1110.19)" fill="#B33C2C"/>
<rect width="12.2102" height="219.703" transform="matrix(0.952495 -0.320426 0.312139 0.935496 129.994 1141.57)" fill="#FF546C"/>
<ellipse rx="6.11178" ry="2.49398" transform="matrix(0.947801 -0.330822 0.322964 0.932881 135.597 1139.62)" fill="#C8374B"/>
<path d="M129.21 1204.49H259.225L233.92 1357.21H155.387L129.21 1204.49Z" fill="#7DB5C4"/>
<mask id="mask18" mask-type="alpha" maskUnits="userSpaceOnUse" x="129" y="1204" width="131" height="154">
<path d="M129.21 1204.49H259.225L233.92 1357.21H155.387L129.21 1204.49Z" fill="#7DB5C4"/>
</mask>
<g mask="url(#mask18)">
<path d="M205.997 1392.53L237.41 1192.09L308.962 1196.86L271.441 1381.07L205.997 1392.53Z" fill="#64A6C0"/>
</g>
<mask id="mask19" mask-type="alpha" maskUnits="userSpaceOnUse" x="129" y="1204" width="131" height="154">
<path d="M129.21 1204.49H259.225L233.92 1357.21H155.387L129.21 1204.49Z" fill="#7DB5C4"/>
</mask>
<g mask="url(#mask19)">
<path fill-rule="evenodd" clip-rule="evenodd" d="M278.421 1254.34H116.121V1248.18H278.421V1254.34ZM278.421 1280.11H124.847V1273.96H278.421V1280.11Z" fill="white"/>
</g>
<path fill-rule="evenodd" clip-rule="evenodd" d="M67.8827 1356.87C67.8827 1355.17 69.2556 1353.79 70.9491 1353.79H1512.15C1513.84 1353.79 1515.21 1355.17 1515.21 1356.87C1515.21 1358.57 1513.84 1359.95 1512.15 1359.95H70.9491C69.2556 1359.95 67.8827 1358.57 67.8827 1356.87Z" fill="#0E374B"/>
<path fill-rule="evenodd" clip-rule="evenodd" d="M1227.45 125.644C1220.37 123.259 1213.02 121.65 1205.41 120.895L1206.38 111.09C1214.73 111.919 1222.8 113.688 1230.57 116.302L1227.45 125.644ZM1182.82 121.149C1179.14 121.585 1175.4 122.214 1171.6 123.046C1168.95 123.626 1166.34 121.941 1165.76 119.283C1165.18 116.624 1166.86 113.999 1169.51 113.419C1173.61 112.521 1177.67 111.838 1181.68 111.364L1182.82 121.149ZM1266.47 148.519C1260.59 143.418 1254.43 138.931 1248.01 135.126L1252.99 126.64C1259.96 130.767 1266.59 135.605 1272.89 141.063L1266.47 148.519ZM1296.55 183.35C1292.19 176.771 1287.54 170.593 1282.64 164.872L1290.08 158.447C1295.26 164.493 1300.14 170.995 1304.72 177.884L1296.55 183.35ZM1318.25 224.477C1315.22 217.178 1311.92 210.121 1308.37 203.353L1317.05 198.759C1320.74 205.799 1324.16 213.123 1327.31 220.679L1318.25 224.477ZM1332.76 268.935C1330.88 261.289 1328.75 253.77 1326.36 246.423L1335.68 243.365C1338.15 250.947 1340.36 258.699 1342.29 266.576L1332.76 268.935ZM1340.74 315.108C1339.94 307.312 1338.88 299.555 1337.55 291.877L1347.22 290.194C1348.58 298.095 1349.68 306.076 1350.51 314.097L1340.74 315.108ZM1342.29 361.929C1342.59 354.15 1342.6 346.325 1342.34 338.497L1352.14 338.167C1352.41 346.225 1352.4 354.285 1352.1 362.305L1342.29 361.929ZM1336.94 408.376C1338.44 400.794 1339.64 393.078 1340.53 385.27L1350.28 386.392C1349.36 394.458 1348.12 402.443 1346.56 410.301L1336.94 408.376ZM1327.83 442.098C1329.1 438.458 1330.29 434.764 1331.39 431.023L1340.8 433.82C1339.65 437.713 1338.41 441.562 1337.09 445.36C1335.72 449.274 1334.33 452.992 1332.92 456.521L1323.81 452.856C1325.17 449.468 1326.5 445.884 1327.83 442.098ZM1264.9 441.951C1256.67 442.57 1251.76 445.785 1248.91 449.929L1240.83 444.337C1245.62 437.373 1253.45 432.932 1264.16 432.126L1264.9 441.951ZM1296.34 448.322C1292.62 446.875 1289.15 445.697 1285.89 444.762L1288.6 435.29C1292.16 436.316 1295.92 437.592 1299.89 439.136C1303.88 440.689 1307.72 442.518 1311.42 444.603L1306.61 453.193C1303.31 451.332 1299.89 449.704 1296.34 448.322ZM1339.58 484.745C1335.11 478.12 1330.19 472.157 1324.84 466.949L1331.66 459.872C1337.55 465.596 1342.89 472.091 1347.7 479.22L1339.58 484.745ZM1245.63 468.583C1246.54 475.172 1249.09 482.05 1252.89 488.034L1244.62 493.331C1240.1 486.219 1237.02 478.003 1235.91 469.931L1245.63 468.583ZM1302.04 491.149C1306.1 486.581 1310.24 480.667 1314.36 473.156L1322.96 477.913C1318.55 485.935 1314.01 492.483 1309.37 497.705L1302.04 491.149ZM1359.49 527.098C1357.03 519.387 1354.19 512.036 1350.99 505.122L1359.88 500.963C1363.28 508.282 1366.26 516.021 1368.83 524.094L1359.49 527.098ZM1267.42 501.939C1272.98 504.749 1279.17 505.497 1285.75 503.135L1289.05 512.414C1279.71 515.764 1270.74 514.646 1263.01 510.742L1267.42 501.939ZM1369.26 573.489C1368.32 565.49 1367.06 557.662 1365.48 550.064L1375.09 548.049C1376.73 555.946 1378.04 564.063 1379.01 572.338L1369.26 573.489ZM1371.06 621.089C1371.36 613.086 1371.36 605.126 1371.07 597.263L1380.88 596.899C1381.18 605.011 1381.17 613.216 1380.86 621.462L1371.06 621.089ZM1365.82 668.484C1367.26 660.663 1368.42 652.782 1369.29 644.891L1379.05 645.977C1378.15 654.104 1376.96 662.222 1375.47 670.281L1365.82 668.484ZM1353.62 714.501C1356.24 707.062 1358.58 699.458 1360.62 691.739L1370.1 694.264C1367.99 702.232 1365.59 710.091 1362.87 717.79L1353.62 714.501ZM1333.88 757.591C1337.81 750.843 1341.44 743.805 1344.75 736.532L1353.68 740.634C1350.23 748.189 1346.46 755.52 1342.35 762.568L1333.88 757.591ZM1305.62 795.179C1311.04 789.63 1316.12 783.646 1320.88 777.284L1328.73 783.199C1323.73 789.885 1318.36 796.201 1312.63 802.077L1305.62 795.179ZM1268.43 823.15C1275.33 819.544 1281.89 815.362 1288.1 810.667L1294 818.538C1287.38 823.547 1280.36 828.023 1272.96 831.891L1268.43 823.15ZM1235.71 835.136C1239.55 834.273 1243.31 833.254 1246.98 832.088L1249.94 841.481C1246 842.733 1241.97 843.826 1237.86 844.751L1235.71 835.136Z" fill="#FFBA55"/>
<defs>
<filter id="filter0_i" x="660.819" y="1255.73" width="164.06" height="94.6772" filterUnits="userSpaceOnUse" color-interpolation-filters="sRGB">
<feFlood flood-opacity="0" result="BackgroundImageFix"/>
<feBlend mode="normal" in="SourceGraphic" in2="BackgroundImageFix" result="shape"/>
<feColorMatrix in="SourceAlpha" type="matrix" values="0 0 0 0 0 0 0 0 0 0 0 0 0 0 0 0 0 0 127 0" result="hardAlpha"/>
<feOffset dx="5" dy="6"/>
<feGaussianBlur stdDeviation="5"/>
<feComposite in2="hardAlpha" operator="arithmetic" k2="-1" k3="1"/>
<feColorMatrix type="matrix" values="0 0 0 0 0.956863 0 0 0 0 0.54902 0 0 0 0 0.419608 0 0 0 0.5 0"/>
<feBlend mode="normal" in2="shape" result="effect1_innerShadow"/>
</filter>
<filter id="filter1_i" x="834.055" y="1264.77" width="106.487" height="79.5492" filterUnits="userSpaceOnUse" color-interpolation-filters="sRGB">
<feFlood flood-opacity="0" result="BackgroundImageFix"/>
<feBlend mode="normal" in="SourceGraphic" in2="BackgroundImageFix" result="shape"/>
<feColorMatrix in="SourceAlpha" type="matrix" values="0 0 0 0 0 0 0 0 0 0 0 0 0 0 0 0 0 0 127 0" result="hardAlpha"/>
<feOffset dy="9"/>
<feGaussianBlur stdDeviation="5"/>
<feComposite in2="hardAlpha" operator="arithmetic" k2="-1" k3="1"/>
<feColorMatrix type="matrix" values="0 0 0 0 0.956863 0 0 0 0 0.54902 0 0 0 0 0.419608 0 0 0 0.5 0"/>
<feBlend mode="normal" in2="shape" result="effect1_innerShadow"/>
</filter>
<filter id="filter2_i" x="710.173" y="1327.93" width="580.159" height="28.6317" filterUnits="userSpaceOnUse" color-interpolation-filters="sRGB">
<feFlood flood-opacity="0" result="BackgroundImageFix"/>
<feBlend mode="normal" in="SourceGraphic" in2="BackgroundImageFix" result="shape"/>
<feColorMatrix in="SourceAlpha" type="matrix" values="0 0 0 0 0 0 0 0 0 0 0 0 0 0 0 0 0 0 127 0" result="hardAlpha"/>
<feOffset dy="4"/>
<feGaussianBlur stdDeviation="5"/>
<feComposite in2="hardAlpha" operator="arithmetic" k2="-1" k3="1"/>
<feColorMatrix type="matrix" values="0 0 0 0 0 0 0 0 0 0 0 0 0 0 0 0 0 0 0.1 0"/>
<feBlend mode="normal" in2="shape" result="effect1_innerShadow"/>
</filter>
<filter id="filter3_i" x="858.586" y="1002.79" width="596.485" height="356.234" filterUnits="userSpaceOnUse" color-interpolation-filters="sRGB">
<feFlood flood-opacity="0" result="BackgroundImageFix"/>
<feBlend mode="normal" in="SourceGraphic" in2="BackgroundImageFix" result="shape"/>
<feColorMatrix in="SourceAlpha" type="matrix" values="0 0 0 0 0 0 0 0 0 0 0 0 0 0 0 0 0 0 127 0" result="hardAlpha"/>
<feOffset dy="4"/>
<feGaussianBlur stdDeviation="25"/>
<feComposite in2="hardAlpha" operator="arithmetic" k2="-1" k3="1"/>
<feColorMatrix type="matrix" values="0 0 0 0 0 0 0 0 0 0 0 0 0 0 0 0 0 0 0.05 0"/>
<feBlend mode="normal" in2="shape" result="effect1_innerShadow"/>
</filter>
<filter id="filter4_d" x="1154.32" y="1160.43" width="47.2497" height="47.4109" filterUnits="userSpaceOnUse" color-interpolation-filters="sRGB">
<feFlood flood-opacity="0" result="BackgroundImageFix"/>
<feColorMatrix in="SourceAlpha" type="matrix" values="0 0 0 0 0 0 0 0 0 0 0 0 0 0 0 0 0 0 127 0"/>
<feOffset dx="-2" dy="4"/>
<feGaussianBlur stdDeviation="2"/>
<feColorMatrix type="matrix" values="0 0 0 0 0 0 0 0 0 0 0 0 0 0 0 0 0 0 0.04 0"/>
<feBlend mode="normal" in2="BackgroundImageFix" result="effect1_dropShadow"/>
<feBlend mode="normal" in="SourceGraphic" in2="effect1_dropShadow" result="shape"/>
</filter>
</defs>
</svg>
